<svg width="1110" height="600" viewBox="0 0 1110 600" fill="none" xmlns="http://www.w3.org/2000/svg">
<rect width="1110" height="600" rx="12" fill="#191826"/>
<mask id="mask0_0_366" style="mask-type:luminance" maskUnits="userSpaceOnUse" x="0" y="0" width="1110" height="600">
<rect width="1110" height="600" rx="12" fill="white"/>
</mask>
<g mask="url(#mask0_0_366)">
<path d="M492 116C492 72.9218 526.922 38 570 38C613.078 38 648 72.9218 648 116V272H592C536.772 272 492 227.228 492 172V116Z" fill="#66E2DC"/>
<rect x="414" y="38" width="78" height="78" rx="39" fill="#FCFAF9"/>
<rect x="336" y="-40" width="78" height="156" rx="39" fill="#66E2DC"/>
<rect x="336" y="116" width="156" height="156" rx="78" fill="#FFB964"/>
<rect x="337" y="273" width="154" height="154" rx="77" stroke="#FCFAF9" stroke-width="2"/>
<rect x="376" y="351" width="76" height="76" rx="38" stroke="#FCFAF9" stroke-width="2"/>
</g>
</svg>
