<svg width="147" height="32" viewBox="0 0 147 32" fill="none" xmlns="http://www.w3.org/2000/svg">
<rect width="147" height="32" fill="#F2F2F2"/>
<g id="Desktop" clip-path="url(#clip0_0_1)">
<rect width="1440" height="1832" transform="translate(-166 -1662)" fill="#FCFAF9"/>
<g id="Group 18">
</g>
<g id="Group 9" clip-path="url(#clip1_0_1)">
<g id="equalizer">
<path d="M2.83998 17.9919V14.7119H14.104L13.624 15.5439C13.624 15.4586 13.624 15.3786 13.624 15.3039C13.624 15.2186 13.624 15.1386 13.624 15.0639C13.624 14.4559 13.48 13.8746 13.192 13.3199C12.904 12.7546 12.456 12.2959 11.848 11.9439C11.2506 11.5813 10.4826 11.3999 9.54398 11.3999C8.60531 11.3999 7.79464 11.6026 7.11198 12.0079C6.43998 12.4026 5.92264 12.9733 5.55998 13.7199C5.20798 14.4666 5.03198 15.3679 5.03198 16.4239C5.03198 17.5119 5.20264 18.4453 5.54398 19.2239C5.89598 19.9919 6.41331 20.5839 7.09598 20.9999C7.78931 21.4159 8.64798 21.6239 9.67198 21.6239C10.3333 21.6239 10.904 21.5653 11.384 21.4479C11.864 21.3199 12.2533 21.1599 12.552 20.9679C12.8613 20.7759 13.096 20.5626 13.256 20.3279C13.416 20.0933 13.512 19.8639 13.544 19.6399H18.44C18.376 20.3546 18.1306 21.0586 17.704 21.7519C17.2773 22.4346 16.6853 23.0533 15.928 23.6079C15.1706 24.1519 14.248 24.5839 13.16 24.9039C12.0826 25.2239 10.8506 25.3839 9.46398 25.3839C7.58664 25.3839 5.94931 25.0106 4.55198 24.2639C3.15464 23.5066 2.07198 22.4666 1.30398 21.1439C0.535978 19.8106 0.151978 18.2746 0.151978 16.5359C0.151978 14.7759 0.541311 13.2346 1.31998 11.9119C2.10931 10.5786 3.20264 9.54394 4.59998 8.80794C6.00798 8.06128 7.63464 7.68794 9.47998 7.68794C11.368 7.68794 13 8.06661 14.376 8.82394C15.752 9.57061 16.8133 10.6213 17.56 11.9759C18.3066 13.3199 18.68 14.8879 18.68 16.6799C18.68 16.9466 18.6746 17.2026 18.664 17.4479C18.6533 17.6933 18.6373 17.8746 18.616 17.9919H2.83998Z" fill="#191826"/>
<path d="M28.4393 25.3839C27.0206 25.3839 25.7139 25.0479 24.5193 24.3759C23.3246 23.6933 22.3646 22.6853 21.6393 21.3519C20.9139 20.0186 20.5513 18.3759 20.5513 16.4239C20.5513 14.5573 20.9193 12.9733 21.6553 11.6719C22.4019 10.3706 23.3726 9.38394 24.5673 8.71194C25.7726 8.02928 27.0633 7.68794 28.4393 7.68794C29.7833 7.68794 31.0099 8.02928 32.1193 8.71194C33.2393 9.39461 34.1353 10.3279 34.8073 11.5119C35.4793 12.6853 35.8153 14.0399 35.8153 15.5759C35.8153 15.6293 35.8153 15.6826 35.8153 15.7359C35.8153 15.7786 35.8153 15.8266 35.8153 15.8799L33.6713 15.9119C33.6713 15.8799 33.6713 15.8479 33.6713 15.8159C33.6713 15.7733 33.6713 15.7359 33.6713 15.7039C33.6713 14.9039 33.4793 14.2159 33.0953 13.6399C32.7113 13.0639 32.2153 12.6213 31.6073 12.3119C30.9993 11.9919 30.3646 11.8319 29.7033 11.8319C28.6046 11.8319 27.6553 12.1999 26.8553 12.9359C26.0553 13.6613 25.6553 14.8239 25.6553 16.4239C25.6553 18.0239 26.0553 19.2026 26.8553 19.9599C27.6659 20.7066 28.6153 21.0799 29.7033 21.0799C30.386 21.0799 31.0313 20.9199 31.6393 20.5999C32.2473 20.2693 32.7379 19.8053 33.1113 19.2079C33.4846 18.6106 33.6713 17.9066 33.6713 17.0959L35.8153 17.2079C35.8153 18.7333 35.4846 20.1146 34.8233 21.3519C34.1726 22.5786 33.2873 23.5599 32.1673 24.2959C31.0579 25.0213 29.8153 25.3839 28.4393 25.3839ZM33.6713 31.9919V8.00794H38.6473V31.9919H33.6713Z" fill="#191826"/>
<path d="M48.0166 25.3199C46.8113 25.3199 45.8193 25.1279 45.0406 24.7439C44.2619 24.3493 43.6486 23.8213 43.2006 23.1599C42.7526 22.4986 42.4379 21.7626 42.2566 20.9519C42.0753 20.1413 41.9846 19.3199 41.9846 18.4879C41.9846 18.1039 41.9846 17.6986 41.9846 17.2719C41.9846 16.8453 41.9846 16.4079 41.9846 15.9599V8.00794H46.9446V15.1759C46.9446 15.5386 46.9446 15.8906 46.9446 16.2319C46.9446 16.5733 46.9446 16.8879 46.9446 17.1759C46.9446 17.8906 47.0246 18.5466 47.1846 19.1439C47.3446 19.7413 47.6379 20.2213 48.0646 20.5839C48.5019 20.9466 49.1206 21.1279 49.9206 21.1279C50.6993 21.1279 51.3606 20.9093 51.9046 20.4719C52.4486 20.0239 52.8646 19.4533 53.1526 18.7599C53.4406 18.0666 53.5846 17.3519 53.5846 16.6159L54.9766 17.7519C54.9766 18.8186 54.8113 19.8106 54.4806 20.7279C54.1606 21.6453 53.7019 22.4506 53.1046 23.1439C52.5073 23.8266 51.7766 24.3599 50.9126 24.7439C50.0593 25.1279 49.0939 25.3199 48.0166 25.3199ZM53.5846 24.9999V8.00794H58.5446V24.9999H53.5846Z" fill="#191826"/>
<path d="M67.5814 25.3519C66.3441 25.3519 65.2401 25.1546 64.2694 24.7599C63.3094 24.3653 62.5574 23.7946 62.0134 23.0479C61.4694 22.3013 61.1974 21.3946 61.1974 20.3279C61.1974 19.1226 61.5281 18.1413 62.1894 17.3839C62.8507 16.6266 63.7254 16.0506 64.8134 15.6559C65.9121 15.2506 67.1014 14.9839 68.3814 14.8559C70.2481 14.6746 71.5334 14.5093 72.2374 14.3599C72.9521 14.2106 73.3094 13.9493 73.3094 13.5759C73.3094 13.5653 73.3094 13.5546 73.3094 13.5439C73.3094 12.9146 73.0054 12.4186 72.3974 12.0559C71.8001 11.6933 70.9627 11.5119 69.8854 11.5119C68.7441 11.5119 67.8694 11.7199 67.2614 12.1359C66.6641 12.5413 66.3654 13.1653 66.3654 14.0079H61.4854C61.4854 12.6426 61.8534 11.4906 62.5894 10.5519C63.3361 9.61328 64.3441 8.90394 65.6134 8.42394C66.8827 7.93328 68.3174 7.68794 69.9174 7.68794C71.4107 7.68794 72.7921 7.91728 74.0614 8.37594C75.3307 8.82394 76.3494 9.50128 77.1174 10.4079C77.8961 11.3146 78.2854 12.4666 78.2854 13.8639C78.2854 14.0879 78.2854 14.3119 78.2854 14.5359C78.2854 14.7493 78.2854 14.9679 78.2854 15.1919V21.2079C78.2854 21.6453 78.2961 22.0666 78.3174 22.4719C78.3494 22.8666 78.4134 23.2293 78.5094 23.5599C78.6161 23.9333 78.7494 24.2426 78.9094 24.4879C79.0694 24.7333 79.2027 24.9039 79.3094 24.9999H74.4294C74.3547 24.9253 74.2374 24.7706 74.0774 24.5359C73.9281 24.3013 73.8001 24.0293 73.6934 23.7199C73.5654 23.3466 73.4694 22.9733 73.4054 22.5999C73.3521 22.2159 73.3254 21.7679 73.3254 21.2559L74.3494 21.9599C74.0507 22.6639 73.5654 23.2719 72.8934 23.7839C72.2321 24.2853 71.4427 24.6746 70.5254 24.9519C69.6187 25.2186 68.6374 25.3519 67.5814 25.3519ZM68.9094 21.6399C69.6881 21.6399 70.4134 21.5013 71.0854 21.2239C71.7681 20.9359 72.3227 20.4879 72.7494 19.8799C73.1761 19.2719 73.3894 18.4773 73.3894 17.4959V15.7839L74.6214 16.9839C73.9174 17.2399 73.1014 17.4533 72.1734 17.6239C71.2561 17.7839 70.3387 17.9119 69.4214 18.0079C68.3334 18.1146 67.5174 18.3013 66.9734 18.5679C66.4401 18.8239 66.1734 19.2613 66.1734 19.8799C66.1734 20.4666 66.4027 20.9093 66.8614 21.2079C67.3201 21.4959 68.0027 21.6399 68.9094 21.6399Z" fill="#191826"/>
<path d="M86.6067 -0.00805664V24.9999H81.7107V-0.00805664H86.6067Z" fill="#191826"/>
<path d="M89.928 24.9999V8.00794H94.84V24.9999H89.928ZM92.376 5.23994C91.608 5.23994 90.936 5.03728 90.36 4.63194C89.7947 4.22661 89.512 3.65594 89.512 2.91994C89.512 2.17328 89.7947 1.59728 90.36 1.19194C90.936 0.786611 91.608 0.583944 92.376 0.583944C93.1547 0.583944 93.8267 0.786611 94.392 1.19194C94.968 1.59728 95.256 2.17328 95.256 2.91994C95.256 3.66661 94.968 4.24261 94.392 4.64794C93.8267 5.04261 93.1547 5.23994 92.376 5.23994Z" fill="#191826"/>
<path d="M102.387 21.1119H111.603V24.9999H97.0746V21.3199L106.067 11.7039L106.179 11.8799H97.3946V8.00794H111.411V11.6879L102.499 21.2719L102.387 21.1119Z" fill="#191826"/>
<path d="M115.541 17.9919V14.7119H126.805L126.325 15.5439C126.325 15.4586 126.325 15.3786 126.325 15.3039C126.325 15.2186 126.325 15.1386 126.325 15.0639C126.325 14.4559 126.181 13.8746 125.893 13.3199C125.605 12.7546 125.157 12.2959 124.549 11.9439C123.952 11.5813 123.184 11.3999 122.245 11.3999C121.307 11.3999 120.496 11.6026 119.813 12.0079C119.141 12.4026 118.624 12.9733 118.261 13.7199C117.909 14.4666 117.733 15.3679 117.733 16.4239C117.733 17.5119 117.904 18.4453 118.245 19.2239C118.597 19.9919 119.115 20.5839 119.797 20.9999C120.491 21.4159 121.349 21.6239 122.373 21.6239C123.035 21.6239 123.605 21.5653 124.085 21.4479C124.565 21.3199 124.955 21.1599 125.253 20.9679C125.563 20.7759 125.797 20.5626 125.957 20.3279C126.117 20.0933 126.213 19.8639 126.245 19.6399H131.141C131.077 20.3546 130.832 21.0586 130.405 21.7519C129.979 22.4346 129.387 23.0533 128.629 23.6079C127.872 24.1519 126.949 24.5839 125.861 24.9039C124.784 25.2239 123.552 25.3839 122.165 25.3839C120.288 25.3839 118.651 25.0106 117.253 24.2639C115.856 23.5066 114.773 22.4666 114.005 21.1439C113.237 19.8106 112.853 18.2746 112.853 16.5359C112.853 14.7759 113.243 13.2346 114.021 11.9119C114.811 10.5786 115.904 9.54394 117.301 8.80794C118.709 8.06128 120.336 7.68794 122.181 7.68794C124.069 7.68794 125.701 8.06661 127.077 8.82394C128.453 9.57061 129.515 10.6213 130.261 11.9759C131.008 13.3199 131.381 14.8879 131.381 16.6799C131.381 16.9466 131.376 17.2026 131.365 17.4479C131.355 17.6933 131.339 17.8746 131.317 17.9919H115.541Z" fill="#191826"/>
<path d="M134.037 24.9999V8.00794H139.013V13.8639L137.989 13.2239C138.106 12.4239 138.319 11.6879 138.629 11.0159C138.938 10.3439 139.338 9.76261 139.829 9.27194C140.319 8.77061 140.901 8.38128 141.573 8.10394C142.255 7.82661 143.034 7.68794 143.909 7.68794C144.591 7.68794 145.125 7.74128 145.509 7.84794C145.903 7.94394 146.149 8.01861 146.245 8.07194L145.429 12.5199C145.333 12.4666 145.119 12.3813 144.789 12.2639C144.458 12.1466 144.031 12.0879 143.509 12.0879C142.655 12.0879 141.941 12.2319 141.365 12.5199C140.789 12.8079 140.325 13.1919 139.973 13.6719C139.631 14.1413 139.386 14.6639 139.237 15.2399C139.087 15.8159 139.013 16.3973 139.013 16.9839V24.9999H134.037Z" fill="#191826"/>
</g>
</g>
</g>
<defs>
<clipPath id="clip0_0_1">
<rect width="1440" height="1832" fill="white" transform="translate(-166 -1662)"/>
</clipPath>
<clipPath id="clip1_0_1">
<rect width="1110" height="79" fill="white" transform="translate(-1)"/>
</clipPath>
</defs>
</svg>
